<svg id="Camada_1" data-name="Camada 1" xmlns="http://www.w3.org/2000/svg" viewBox="0 0 1001.05 700.43"><defs><style>.cls-1{fill:none;stroke:#fff;stroke-miterlimit:10;stroke-width:2px;}.cls-2{fill:#fef100;}.cls-3{fill:#138edd;}.cls-4{fill:#e92a33;}.cls-5{fill:#a4d168;}</style></defs><circle class="cls-1" cx="762" cy="127.4" r="32"/><circle class="cls-1" cx="692" cy="194.4" r="32"/><circle class="cls-1" cx="762" cy="261.4" r="32"/><circle class="cls-1" cx="831" cy="197.4" r="32"/><circle class="cls-1" cx="427" cy="194.4" r="23"/><circle class="cls-1" cx="575" cy="193.4" r="23"/><circle class="cls-1" cx="634.43" cy="346.79" r="62.57"/><circle class="cls-1" cx="501.43" cy="90.79" r="38.57"/><circle class="cls-1" cx="241.43" cy="192.79" r="62.57"/><line class="cls-1" x1="585" y1="184.4" x2="565" y2="184.4"/><line class="cls-1" x1="585" y1="191.4" x2="565" y2="191.4"/><line class="cls-1" x1="585" y1="197.4" x2="565" y2="197.4"/><rect class="cls-1" x="425" y="189.94" width="13.23" height="10.46"/><polyline class="cls-1" points="419.78 191.4 415.91 191.4 415.91 182.21 429 182.21 429 186.8"/><path class="cls-1" d="M923,304" transform="translate(-74 -222.6)"/><path class="cls-1" d="M711,260l-275,1H420.58L407,256l-15-5-17-1-18,2-27,5-29,9-23,9-19,8-20,11-19,13-11,10-8,10-9,12-7,17-6,18-11,28-13,31-8,22-9,28-11,35-10,33-16,54L89,654l-8,42-5,47-1,24,1,29,5,24,8,27,7,17,11,15,11,13,12,9,11,6,13,7,11,6,11,2,7-2,10-5,9-6,10-9,9-10,13-13,31-39,30-38,28-34s19-18,22-20l18-12s13-7,17-7l15-1H753l19,2,16,6,16,11,15,13,19,19,22,29,35,46,24,29,19,19,12,10,12,8,7,4h6l8.94-3,13-6,20-11,15-11,14-16,8-13s15.93-35.16,19-62c3.55-31.06-1-123-20-176l-5-24-6.17-24L1014,489l-30-83-23-58-12-19-8-8-10-11-8-6-15-11-35-17-42-15-40-8-25-3-15,4-17,5.22L725,262Z" transform="translate(-74 -222.6)"/><path class="cls-1" d="M601.76,285.22,586,295l12,16,7,13s2.07,10.38,1.53,12.19" transform="translate(-74 -222.6)"/><path class="cls-1" d="M555.11,280.61s13.89,1.39,19.44,6c0,0,7.45-4.61,14.45-4.61a40,40,0,0,1,11,2" transform="translate(-74 -222.6)"/><path class="cls-1" d="M543.68,335.28S546,319,551,312l12-16a32.36,32.36,0,0,0-15.31-9.39" transform="translate(-74 -222.6)"/><polyline class="cls-1" points="473.66 117.54 477 108.4 481.11 102.75 500.55 82.79 509 89.4 517 98.4 526 111.36 528 117.54"/><polygon class="cls-1" points="346 336.4 346 290.57 386 290.4 386 336.4 431.61 336.4 431.61 376.66 387.13 376.66 386 422.4 346 422.4 346 377.05 300 376.4 300 336.36 346 336.4"/><path class="cls-1" d="M226.63,302.46S232,282,235,278s17.87-12.52,17.87-12.52S290,245,302,242s37-11,37-11l39-7.39,17,.39,10,4,12,6,8,6,11,4H714l5-1,7-4,11-7,11-5,7.39-3.39L763,224l8-.39L781,225l12,2,21,5,20,6,17,5,16.11,7L884,257l10.3,6,8.7,6,8,7,5,6,4,11,3,11" transform="translate(-74 -222.6)"/><line class="cls-1" x1="637" y1="37.4" x2="637" y2="21.4"/><line class="cls-1" x1="363.07" y1="38.4" x2="363.07" y2="21.4"/><circle class="cls-1" cx="634.91" cy="345.4" r="34"/><circle class="cls-1" cx="241" cy="192.4" r="34"/><path class="cls-2" d="M833,370.2V353l-12.78-23.26h5.94l5.7,11.16c1.55,3.06,2.76,5.51,4,8.32h.12c1.14-2.64,2.52-5.26,4.09-8.32l5.81-11.16h6L838.23,353v17.22Z" transform="translate(-74 -222.6)"/><path class="cls-3" d="M775.11,438,770,429.1c-2.1-3.42-3.42-5.64-4.68-8h-.12c-1.14,2.34-2.28,4.5-4.38,8L755.91,438h-6l12.36-20.46-11.88-20h6l5.34,9.48c1.5,2.64,2.64,4.68,3.72,6.84h.18c1.14-2.4,2.16-4.26,3.66-6.84l5.52-9.48h6l-12.3,19.68L781.13,438Z" transform="translate(-74 -222.6)"/><path class="cls-4" d="M893.26,401.29a50.89,50.89,0,0,1,9.54-.84c5.22,0,8.58.9,11.1,2.94a8.5,8.5,0,0,1,3.36,7.14c0,3.9-2.58,7.32-6.84,8.88v.12c3.84,1,8.34,4.14,8.34,10.14a10.84,10.84,0,0,1-3.42,8.09c-2.82,2.58-7.38,3.78-14,3.78a60.94,60.94,0,0,1-8.1-.48Zm5.22,16.56h4.74c5.52,0,8.76-2.88,8.76-6.78,0-4.74-3.6-6.6-8.88-6.6a23,23,0,0,0-4.62.36Zm0,19.37a26.75,26.75,0,0,0,4.38.24c5.4,0,10.38-2,10.38-7.86,0-5.51-4.74-7.79-10.44-7.79h-4.32Z" transform="translate(-74 -222.6)"/><path class="cls-5" d="M828.67,491.49l-4.19,12.72h-5.4l13.74-40.42h6.3l13.8,40.42h-5.58L843,491.49Zm13.26-4.07-4-11.63c-.9-2.65-1.5-5-2.1-7.39h-.12c-.6,2.4-1.26,4.86-2,7.33l-4,11.69Z" transform="translate(-74 -222.6)"/></svg>