<svg id="Camada_1" data-name="Camada 1" xmlns="http://www.w3.org/2000/svg" xmlns:xlink="http://www.w3.org/1999/xlink" viewBox="0 0 1150 1150"><defs><style>.cls-1{opacity:0;isolation:isolate;}.cls-2{fill:none;stroke:#000;stroke-miterlimit:10;stroke-width:2px;}.cls-3{fill:#fef100;}.cls-4{fill:#138edd;}.cls-5{fill:#e92a33;}.cls-6{fill:#a4d168;}</style></defs><image class="cls-1" width="1000" height="1000" transform="scale(1.15)" xlink:href="x3.jpg"/><circle class="cls-2" cx="836" cy="350" r="32"/><circle class="cls-2" cx="766" cy="417" r="32"/><circle class="cls-2" cx="836" cy="484" r="32"/><circle class="cls-2" cx="905" cy="420" r="32"/><circle class="cls-2" cx="501" cy="417" r="23"/><circle class="cls-2" cx="649" cy="416" r="23"/><circle class="cls-2" cx="708.43" cy="569.39" r="62.57"/><circle class="cls-2" cx="575.43" cy="313.39" r="38.57"/><circle class="cls-2" cx="315.43" cy="415.39" r="62.57"/><line class="cls-2" x1="659" y1="407" x2="639" y2="407"/><line class="cls-2" x1="659" y1="414" x2="639" y2="414"/><line class="cls-2" x1="659" y1="420" x2="639" y2="420"/><rect class="cls-2" x="499" y="412.54" width="13.23" height="10.46"/><polyline class="cls-2" points="493.78 414 489.91 414 489.91 404.81 503 404.81 503 409.4"/><path class="cls-2" d="M923,304"/><path class="cls-2" d="M711,260l-275,1H420.58L407,256l-15-5-17-1-18,2-27,5-29,9-23,9-19,8-20,11-19,13-11,10-8,10-9,12-7,17-6,18-11,28-13,31-8,22-9,28-11,35-10,33-16,54L89,654l-8,42-5,47-1,24,1,29,5,24,8,27,7,17,11,15,11,13,12,9,11,6,13,7,11,6,11,2,7-2,10-5,9-6,10-9,9-10,13-13,31-39,30-38,28-34s19-18,22-20l18-12s13-7,17-7l15-1H753l19,2,16,6,16,11,15,13,19,19,22,29,35,46,24,29,19,19,12,10,12,8,7,4h6l8.94-3,13-6,20-11,15-11,14-16,8-13s15.93-35.16,19-62c3.55-31.06-1-123-20-176l-5-24-6.17-24L1014,489l-30-83-23-58-12-19-8-8-10-11-8-6-15-11-35-17-42-15-40-8-25-3-15,4-17,5.22L725,262Z"/><path class="cls-2" d="M601.76,285.22,586,295l12,16,7,13s2.07,10.38,1.53,12.19"/><path class="cls-2" d="M555.11,280.61s13.89,1.39,19.44,6c0,0,7.45-4.61,14.45-4.61a40,40,0,0,1,11,2"/><path class="cls-2" d="M543.68,335.28S546,319,551,312l12-16a32.36,32.36,0,0,0-15.31-9.39"/><polyline class="cls-2" points="547.66 340.14 551 331 555.11 325.35 574.55 305.39 583 312 591 321 600 333.96 602 340.14"/><polygon class="cls-2" points="420 559 420 513.17 460 513 460 559 505.61 559 505.61 599.26 461.13 599.26 460 645 420 645 420 599.65 374 599 374 558.96 420 559"/><path class="cls-2" d="M226.63,302.46S232,282,235,278s17.87-12.52,17.87-12.52S290,245,302,242s37-11,37-11l39-7.39,17,.39,10,4,12,6,8,6,11,4H714l5-1,7-4,11-7,11-5,7.39-3.39L763,224l8-.39L781,225l12,2,21,5,20,6,17,5,16.11,7L884,257l10.3,6,8.7,6,8,7,5,6,4,11,3,11"/><line class="cls-2" x1="711" y1="260" x2="711" y2="244"/><line class="cls-2" x1="437.07" y1="261" x2="437.07" y2="244"/><circle class="cls-2" cx="708.91" cy="568" r="34"/><circle class="cls-2" cx="315" cy="415" r="34"/><path class="cls-3" d="M834.12,371.17V354l-12.77-23.27h5.94l5.7,11.16c1.55,3.06,2.76,5.52,4,8.33h.12c1.14-2.64,2.52-5.27,4.09-8.33L847,330.73h6L839.4,354v17.22Z"/><path class="cls-4" d="M775.7,437l-5.16-8.94c-2.1-3.42-3.42-5.64-4.68-8h-.12c-1.14,2.34-2.28,4.5-4.38,8L756.5,437h-6l12.36-20.46-11.88-20h6l5.34,9.48c1.5,2.64,2.64,4.68,3.72,6.84h.18c1.14-2.4,2.16-4.26,3.66-6.84l5.52-9.48h6l-12.3,19.68L781.72,437Z"/><path class="cls-5" d="M895.78,399.54a50.89,50.89,0,0,1,9.54-.84c5.22,0,8.58.9,11.1,2.94a8.47,8.47,0,0,1,3.36,7.14c0,3.9-2.58,7.32-6.84,8.88v.12c3.84,1,8.34,4.14,8.34,10.14a10.86,10.86,0,0,1-3.42,8.09c-2.82,2.58-7.38,3.78-14,3.78a60.94,60.94,0,0,1-8.1-.48ZM901,416.1h4.74c5.52,0,8.76-2.88,8.76-6.78,0-4.74-3.6-6.6-8.88-6.6a22.33,22.33,0,0,0-4.62.36Zm0,19.37a27.91,27.91,0,0,0,4.38.24c5.4,0,10.38-2,10.38-7.86,0-5.51-4.74-7.79-10.44-7.79H901Z"/><path class="cls-6" d="M829.19,490.58,825,503.3h-5.4l13.74-40.43h6.3l13.8,40.43h-5.58l-4.32-12.72Zm13.26-4.08-4-11.63c-.9-2.64-1.5-5-2.1-7.38h-.12c-.6,2.4-1.26,4.86-2,7.32l-4,11.69Z"/></svg>