<svg id="Camada_1" data-name="Camada 1" xmlns="http://www.w3.org/2000/svg" viewBox="0 0 1632.31 333.88"><path d="M143.85,389.41a452.12,452.12,0,0,1,67.21-5.09c45.41,0,77.75,10.54,99.18,30.52,21.8,20,34.52,48.32,34.52,87.92,0,40-12.36,72.66-35.24,95.19-22.89,22.89-60.68,35.24-108.27,35.24a509.07,509.07,0,0,1-57.4-2.91Zm31.6,216.53c8,1.45,19.62,1.82,32,1.82C275,607.76,311.7,570,311.7,503.85c.36-57.77-32.34-94.46-99.19-94.46-16.35,0-28.7,1.45-37.06,3.27Z" transform="translate(-143.85 -373.06)"/><path d="M420.32,405.76c.36,10.9-7.63,19.62-20.35,19.62-11.26,0-19.25-8.72-19.25-19.62,0-11.27,8.35-20,20-20C412.69,385.77,420.32,394.49,420.32,405.76ZM384.71,631V455.17h32V631Z" transform="translate(-143.85 -373.06)"/><path d="M621.22,455.17c-.72,12.71-1.45,26.88-1.45,48.32V605.58c0,40.32-8,65-25.07,80.29-17.07,16-41.78,21.07-63.94,21.07-21.07,0-44.32-5.09-58.49-14.53l8-24.34c11.63,7.26,29.79,13.8,51.59,13.8,32.7,0,56.68-17.07,56.68-61.4V600.85h-.73c-9.81,16.35-28.7,29.43-55.95,29.43-43.6,0-74.84-37-74.84-85.74,0-59.58,38.87-93.37,79.2-93.37,30.52,0,47.23,16,54.86,30.52h.73l1.45-26.52Zm-33.06,69.39c0-5.45-.36-10.17-1.81-14.53-5.82-18.53-21.44-33.79-44.69-33.79-30.52,0-52.32,25.79-52.32,66.48,0,34.52,17.44,63.22,52,63.22,19.61,0,37.42-12.35,44.32-32.7a55.48,55.48,0,0,0,2.54-17.07Z" transform="translate(-143.85 -373.06)"/><path d="M706.23,405.76c.37,10.9-7.63,19.62-20.34,19.62-11.26,0-19.26-8.72-19.26-19.62,0-11.27,8.36-20,20-20C698.6,385.77,706.23,394.49,706.23,405.76ZM670.63,631V455.17h32V631Z" transform="translate(-143.85 -373.06)"/><path d="M794.15,404.67v50.5h45.78v24.34H794.15v94.82c0,21.8,6.18,34.15,24,34.15a71.13,71.13,0,0,0,18.53-2.18l1.45,24c-6.17,2.55-16,4.36-28.34,4.36-14.89,0-26.88-4.72-34.51-13.44-9.08-9.45-12.35-25.07-12.35-45.78V479.51H735.66V455.17h27.25V413Z" transform="translate(-143.85 -373.06)"/><path d="M973.26,631l-2.54-22.16h-1.09c-9.81,13.8-28.7,26.16-53.77,26.16-35.61,0-53.77-25.07-53.77-50.5,0-42.51,37.78-65.76,105.72-65.4v-3.63c0-14.54-4-40.69-40-40.69-16.35,0-33.43,5.08-45.78,13.07l-7.27-21.07c14.54-9.44,35.61-15.62,57.77-15.62,53.77,0,66.85,36.69,66.85,71.94v65.75c0,15.26.73,30.16,2.9,42.15Zm-4.72-89.74c-34.88-.73-74.48,5.45-74.48,39.6,0,20.71,13.8,30.52,30.15,30.52,22.89,0,37.42-14.53,42.51-29.43a33.36,33.36,0,0,0,1.82-10.17Z" transform="translate(-143.85 -373.06)"/><path d="M1051,373.06h32V631h-32Z" transform="translate(-143.85 -373.06)"/><path d="M1169.44,386.14V488.59h118.44V386.14h32V631h-32V516.2H1169.44V631h-31.61V386.14Z" transform="translate(-143.85 -373.06)"/><path d="M1374.7,389.41a452.37,452.37,0,0,1,67.22-5.09c45.41,0,77.75,10.54,99.18,30.52,21.8,20,34.52,48.32,34.52,87.92,0,40-12.36,72.66-35.25,95.19-22.88,22.89-60.67,35.24-108.26,35.24a509.4,509.4,0,0,1-57.41-2.91Zm31.61,216.53c8,1.45,19.62,1.82,32,1.82,67.58,0,104.27-37.79,104.27-103.91.37-57.77-32.33-94.46-99.18-94.46-16.35,0-28.7,1.45-37.06,3.27Z" transform="translate(-143.85 -373.06)"/><path d="M1616.66,389.41c16-3.27,38.87-5.09,60.67-5.09,33.79,0,55.59,6.18,70.85,20,12.35,10.9,19.25,27.61,19.25,46.51,0,32.33-20.34,53.77-46.14,62.49v1.09c18.9,6.54,30.16,24,36,49.41,8,34.15,13.81,57.76,18.89,67.21h-32.69c-4-6.9-9.45-28-16.35-58.49-7.27-33.79-20.35-46.51-49-47.6h-29.79V631h-31.61Zm31.61,111.53h32.33c33.79,0,55.23-18.53,55.23-46.5,0-31.61-22.89-45.41-56.32-45.78-15.26,0-26.15,1.46-31.24,2.91Z" transform="translate(-143.85 -373.06)"/></svg>